<?xml version="1.0" encoding="iso-8859-1"?>
<!-- Uploaded to: SVG Repo, www.svgrepo.com, Generator: SVG Repo Mixer Tools -->
<svg height="800px" width="800px" version="1.1" id="Layer_1" xmlns="http://www.w3.org/2000/svg" xmlns:xlink="http://www.w3.org/1999/xlink" 
	 viewBox="0 0 511.979 511.979" xml:space="preserve">
<g>
	<path style="fill:#40916c;" d="M343.736,447.903c0,0-15.343-19.999-16.687-33.437c-1.344-13.452-3.765-51.889-3.765-51.889
		l-53.546,25.999c0,0,3.547,40.218,12.219,56.217s16.328,45.778,16.328,45.778h75.027
		C373.313,466.573,343.736,447.903,343.736,447.903z"/>
	<path style="fill:#40916c;" d="M54.623,405.67l-11.921-69.341c-0.797-4.594-4.469-8.141-9.078-8.766
		c-4.625-0.625-9.109,1.812-11.094,6.031L1.016,379.358c-0.797,1.688-1.125,3.562-0.984,5.406
		c1.016,12.359,9.125,35.718,32.686,35.718l0,0c4.75,0,9.843-1.016,15.171-3.031C52.655,415.638,55.483,410.701,54.623,405.67z"/>
</g>
<g>
	<path style="fill:#76c893;" d="M97.418,446.169L97.418,446.169c-8.89,0-13.828-0.266-14.031-0.281c-3-0.172-5.78-1.609-7.671-3.938
		L22.78,376.624c-1.578-1.953-2.421-4.405-2.375-6.921c0.156-8.516,1.921-83.841,14.125-107.316
		c0.375-0.718,0.766-1.468,1.141-2.202c5.734-11.125,13.562-26.343,34.295-41.42c23.015-16.75,57.763-30.452,106.246-41.905
		c21.843-5.156,42.249-7.781,60.638-7.781c47.389,0,71.936,17.25,82.716,28.155l70.746-44.358c1.703-1.078,3.672-1.641,5.672-1.641
		c7.203,0,45.67,10.125,65.2,31.468c17.953,19.625,47.607,61.966,48.873,63.748c1.25,1.797,1.922,3.938,1.922,6.125v14.733
		c0,2.172-0.672,4.297-1.906,6.102l-12,17.249c-0.593,0.844-1.28,1.594-2.077,2.234c-1.188,0.953-28.14,22.266-64.919,24.203
		c-4.656,6.42-15.374,22.498-32.296,55.06c-20.421,39.295-60.576,44.357-111.417,50.764c-18.344,2.312-39.139,4.938-61.248,9.437
		C167.025,444.372,120.121,446.169,97.418,446.169z"/>
	<path style="fill:#76c893;" d="M430.171,88.363c-1.906-13.296-12.812-29.686-33.374-50.107
		c-14.281-14.179-27.905-24.937-28.483-25.39c-2.796-2.203-6.499-2.867-9.874-1.766c-3.391,1.094-6,3.805-6.984,7.227
		c-0.781,2.766-19.172,67.989-15.547,97.988c3.594,29.702,27.859,78.325,28.891,80.372c1.266,2.546,3.499,4.468,6.202,5.359
		c1.094,0.344,2.203,0.531,3.328,0.531c1.672,0,3.344-0.406,4.859-1.172l41.687-21.343c3.109-1.594,5.249-4.609,5.702-8.078
		C426.889,169.688,434.03,115.471,430.171,88.363z"/>
</g>
<path style="fill:#434A54;" d="M447.982,213.233c0,5.89-4.781,10.671-10.671,10.671c-5.891,0-10.656-4.781-10.656-10.671
	c0-5.891,4.766-10.656,10.656-10.656C443.201,202.577,447.982,207.343,447.982,213.233z"/>
<g>
	<polygon style="fill:#40916c;" points="354.814,175.141 339.799,184.562 364.799,196.687 	"/>
	<polygon style="fill:#40916c;" points="25.515,379.999 35.687,392.561 45.874,354.093 	"/>
	<path style="fill:#40916c;" d="M142.151,293.003c-18.625,1.641-39.374,14.609-39.374,14.609l112.73,126.822l18.015-3.53
		c0,0,28.202-46.796,1.172-92.122C212.367,301.315,176.29,290.003,142.151,293.003z"/>
</g>
<path style="fill:#76c893;" d="M319.941,465.167c-0.547-10.326-8.797-18.248-24.515-23.545c-9.234-3.109-18.281-4.391-18.656-4.453
	c-0.5-0.062-1-0.094-1.5-0.094l-61.544,0.125c0.312-0.484,0.625-0.969,0.938-1.453c12.874-19.968,14.202-28.968,14.39-33.998
	c1.25-33.249-4.906-53.749-26.092-77.857c-11.281-12.826-31.468-20.686-63.294-20.686c-17.187,0-31.171,2.062-31.764,2.156
	c-1.875,0.281-3.656,1.047-5.125,2.25l-54.888,44.325c-0.766,0.625-1.453,1.359-2.016,2.156
	c-14.453,20.53-17.171,45.765-7.859,72.998c6.734,19.702,17.5,33.623,17.953,34.201c2.234,2.874,5.797,4.405,9.421,4.062
	l30.139-2.874l-0.469,28.076c-0.031,2.859,1.062,5.609,3.062,7.656c2.016,2.031,4.75,3.188,7.609,3.188h192.555
	c2.828,0,5.531-1.125,7.531-3.109C307.364,496.744,320.863,482.76,319.941,465.167z"/>
</svg>