<svg viewBox="0 0 232 172" fill="none" xmlns="http://www.w3.org/2000/svg">
<ellipse cx="89" cy="78.5" rx="76.5" ry="66.5" fill="#E5E7FF"/>
<ellipse cx="96" cy="101.5" rx="76.5" ry="66.5" fill="#E5E7FF"/>
<ellipse cx="77" cy="105.5" rx="76.5" ry="66.5" fill="#E5E7FF"/>
<ellipse cx="155" cy="100.5" rx="76.5" ry="66.5" fill="#E5E7FF"/>
<ellipse cx="150" cy="66.5" rx="76.5" ry="66.5" fill="#E5E7FF"/>
<circle cx="129" cy="91.5" r="69.5" fill="#E5E7FF"/>
<path d="M73.0667 68.3948C73.0667 68.3948 76.388 74.0676 82.9345 73.9357C82.9345 73.9357 79.1496 70.4915 77.7606 64.3365" stroke="#101923" stroke-width="2.19542" stroke-linecap="round" stroke-linejoin="round"/>
<path fill-rule="evenodd" clip-rule="evenodd" d="M67.8367 139.498L93.8073 131.558C99.0226 129.964 101.958 124.443 100.365 119.235L95.3328 102.774C93.7403 97.5648 88.2198 94.6295 83.0045 96.224L77.9482 97.7699L72.5226 79.6681L61.2968 83.1002C61.2968 83.1002 48.1454 99.4323 55.9039 126.871C56.3631 128.492 57.2809 131.494 58.1709 134.381C59.4256 138.461 63.7546 140.746 67.8367 139.498Z" fill="white" stroke="#1D1D1B" stroke-width="2.19542" stroke-linecap="round" stroke-linejoin="round"/>
<path fill-rule="evenodd" clip-rule="evenodd" d="M68.676 128.802L100.326 119.126L95.3256 102.771L63.6758 112.447L68.676 128.802Z" fill="#FF5275"/>
<path fill-rule="evenodd" clip-rule="evenodd" d="M80.4361 61.5991L82.782 60.8819C84.8099 60.2619 85.9509 58.116 85.3309 56.0882C84.7109 54.0604 82.565 52.9194 80.5372 53.5393L78.1913 54.2565L80.4361 61.5991Z" stroke="#101923" stroke-width="2.19542" stroke-linecap="round" stroke-linejoin="round"/>
<path fill-rule="evenodd" clip-rule="evenodd" d="M78.3005 54.2203L57.2536 60.6549C53.2576 61.8766 51.0012 66.1099 52.2249 70.1125L52.2472 70.1854C53.1914 73.2735 55.9252 75.271 58.9689 75.4853L61.2989 83.1062L72.5247 79.6741L70.2333 72.1791L80.5453 61.5628L78.3005 54.2203Z" fill="#014FFF"/>
<path fill-rule="evenodd" clip-rule="evenodd" d="M78.3005 54.2203L57.2536 60.6549C53.2576 61.8766 51.0012 66.1099 52.2249 70.1125L52.2472 70.1854C53.1914 73.2735 55.9252 75.271 58.9689 75.4853L61.2989 83.1062L72.5247 79.6741L70.2333 72.1791L80.5453 61.5628L78.3005 54.2203Z" stroke="#101923" stroke-width="2.19542" stroke-linecap="round" stroke-linejoin="round"/>
<path fill-rule="evenodd" clip-rule="evenodd" d="M128.289 60.2868C131.702 59.2434 133.625 55.6265 132.58 52.207C132.069 50.5371 130.925 49.2348 129.504 48.4518C130.175 47.0438 130.391 45.4052 129.901 43.8015C129.389 42.1249 128.244 40.8226 126.826 40.0462C127.503 38.6362 127.706 37.0016 127.214 35.3913C126.169 31.9719 122.552 30.0487 119.145 31.0901L93.6416 53.4741L127.322 60.5826" fill="white"/>
<path d="M121.206 49.6156L93.6385 53.4713L119.756 42.9068" stroke="#E5E7FF" stroke-width="2.19542" stroke-linecap="round" stroke-linejoin="round"/>
<path fill-rule="evenodd" clip-rule="evenodd" d="M148.691 134.962C148.565 127.88 150.647 124.313 152.813 122.159C154.113 121.02 157.287 118.198 158.486 115.245C162.274 105.885 158.743 97.2888 150.516 93.5126C142.29 89.7364 132.786 93.4529 128.789 101.566C127.447 104.286 126.928 107.084 126.928 108.582C126.922 115.317 124.458 119.2 121.953 121.366C119.889 123.144 117.896 125.106 116.679 127.755C112.826 136.149 116.506 146.075 124.906 149.929C133.299 153.777 143.226 150.096 147.074 141.709C148.088 139.501 148.738 137.318 148.691 134.962Z" fill="#FFD917"/>
<path fill-rule="evenodd" clip-rule="evenodd" d="M148.691 134.962C148.565 127.88 150.647 124.313 152.813 122.159C154.113 121.02 157.287 118.198 158.486 115.245C162.274 105.885 158.743 97.2888 150.516 93.5126C142.29 89.7364 132.786 93.4529 128.789 101.566C127.447 104.286 126.928 107.084 126.928 108.582C126.922 115.317 124.458 119.2 121.953 121.366C119.889 123.144 117.896 125.106 116.679 127.755C112.826 136.149 116.506 146.075 124.906 149.929C133.299 153.777 143.226 150.096 147.074 141.709C148.088 139.501 148.738 137.318 148.691 134.962Z" stroke="#1D1D1B" stroke-width="1.89" stroke-linecap="round" stroke-linejoin="round"/>
<path fill-rule="evenodd" clip-rule="evenodd" d="M148.213 102.459C147.879 103.187 147.02 103.509 146.298 103.169C145.57 102.835 145.248 101.982 145.582 101.254C145.916 100.526 146.775 100.204 147.503 100.544C148.231 100.872 148.547 101.731 148.213 102.459Z" fill="#1D1D1B"/>
<path fill-rule="evenodd" clip-rule="evenodd" d="M139.661 102.692C139.321 103.42 138.467 103.736 137.74 103.402C137.012 103.068 136.696 102.209 137.03 101.487C137.358 100.76 138.223 100.437 138.945 100.777C139.672 101.106 139.995 101.965 139.661 102.692Z" fill="#1D1D1B"/>
<path fill-rule="evenodd" clip-rule="evenodd" d="M144.951 109.433C144.616 110.155 143.757 110.477 143.036 110.143C142.308 109.809 141.986 108.95 142.32 108.222C142.654 107.5 143.513 107.178 144.241 107.512C144.968 107.84 145.285 108.705 144.951 109.433Z" fill="#1D1D1B"/>
<path fill-rule="evenodd" clip-rule="evenodd" d="M141.915 116.045C141.581 116.773 140.722 117.095 140 116.755C139.272 116.421 138.95 115.568 139.284 114.84C139.618 114.112 140.477 113.79 141.205 114.13C141.933 114.458 142.249 115.317 141.915 116.045Z" fill="#1D1D1B"/>
<path fill-rule="evenodd" clip-rule="evenodd" d="M138.88 122.663C138.546 123.385 137.687 123.707 136.959 123.373C136.237 123.039 135.915 122.18 136.249 121.452C136.577 120.73 137.442 120.408 138.17 120.742C138.892 121.07 139.214 121.935 138.88 122.663Z" fill="#1D1D1B"/>
<path fill-rule="evenodd" clip-rule="evenodd" d="M135.844 129.275C135.51 130.003 134.651 130.319 133.923 129.985C133.202 129.651 132.879 128.798 133.214 128.07C133.542 127.342 134.407 127.02 135.134 127.36C135.856 127.688 136.178 128.547 135.844 129.275Z" fill="#1D1D1B"/>
<path fill-rule="evenodd" clip-rule="evenodd" d="M132.81 135.893C132.47 136.615 131.617 136.937 130.889 136.603C130.161 136.269 129.845 135.41 130.179 134.682C130.507 133.961 131.372 133.638 132.094 133.972C132.822 134.301 133.144 135.166 132.81 135.893Z" fill="#1D1D1B"/>
<path fill-rule="evenodd" clip-rule="evenodd" d="M129.775 142.506C129.435 143.233 128.581 143.55 127.854 143.215C127.126 142.881 126.81 142.022 127.144 141.301C127.472 140.573 128.337 140.251 129.059 140.591C129.787 140.919 130.109 141.778 129.775 142.506Z" fill="#1D1D1B"/>
<path fill-rule="evenodd" clip-rule="evenodd" d="M153.596 109.089C153.261 109.817 152.402 110.133 151.675 109.799C150.953 109.465 150.631 108.606 150.965 107.884C151.293 107.156 152.158 106.834 152.886 107.168C153.608 107.502 153.93 108.361 153.596 109.089Z" fill="#1D1D1B"/>
<path fill-rule="evenodd" clip-rule="evenodd" d="M136.398 109.8C136.058 110.528 135.205 110.85 134.477 110.51C133.749 110.176 133.433 109.323 133.767 108.595C134.095 107.867 134.96 107.545 135.682 107.885C136.41 108.213 136.732 109.072 136.398 109.8Z" fill="#1D1D1B"/>
<path fill-rule="evenodd" clip-rule="evenodd" d="M150.334 116.197C150 116.925 149.14 117.241 148.413 116.907C147.691 116.573 147.369 115.714 147.703 114.992C148.031 114.264 148.896 113.942 149.624 114.276C150.346 114.61 150.668 115.469 150.334 116.197Z" fill="#1D1D1B"/>
<path fill-rule="evenodd" clip-rule="evenodd" d="M146.151 121.841C145.811 122.569 144.957 122.885 144.23 122.551C143.502 122.217 143.186 121.358 143.52 120.636C143.848 119.909 144.713 119.586 145.435 119.926C146.162 120.255 146.485 121.114 146.151 121.841Z" fill="#1D1D1B"/>
<path fill-rule="evenodd" clip-rule="evenodd" d="M135.279 116.855C134.945 117.583 134.086 117.899 133.364 117.565C132.637 117.231 132.315 116.372 132.655 115.65C132.983 114.922 133.842 114.6 134.57 114.934C135.297 115.268 135.613 116.127 135.279 116.855Z" fill="#1D1D1B"/>
<path fill-rule="evenodd" clip-rule="evenodd" d="M142.964 128.582C142.63 129.31 141.771 129.632 141.043 129.298C140.321 128.958 139.999 128.105 140.333 127.377C140.667 126.649 141.526 126.333 142.254 126.667C142.976 126.995 143.298 127.86 142.964 128.582Z" fill="#1D1D1B"/>
<path fill-rule="evenodd" clip-rule="evenodd" d="M132.093 123.595C131.759 124.323 130.906 124.645 130.178 124.305C129.45 123.971 129.134 123.118 129.468 122.39C129.796 121.662 130.661 121.34 131.383 121.68C132.111 122.008 132.433 122.867 132.093 123.595Z" fill="#1D1D1B"/>
<path fill-rule="evenodd" clip-rule="evenodd" d="M127.304 129.631C126.97 130.358 126.117 130.681 125.389 130.346C124.661 130.006 124.345 129.153 124.679 128.426C125.007 127.698 125.872 127.382 126.594 127.716C127.322 128.044 127.644 128.909 127.304 129.631Z" fill="#1D1D1B"/>
<path fill-rule="evenodd" clip-rule="evenodd" d="M141.245 136.028C140.905 136.755 140.052 137.078 139.324 136.737C138.596 136.403 138.28 135.55 138.614 134.823C138.942 134.095 139.807 133.773 140.529 134.113C141.257 134.441 141.579 135.3 141.245 136.028Z" fill="#1D1D1B"/>
<path fill-rule="evenodd" clip-rule="evenodd" d="M124.414 136.08C124.08 136.808 123.221 137.124 122.499 136.79C121.772 136.456 121.449 135.597 121.784 134.875C122.118 134.147 122.977 133.825 123.704 134.159C124.432 134.493 124.748 135.352 124.414 136.08Z" fill="#1D1D1B"/>
<path fill-rule="evenodd" clip-rule="evenodd" d="M138.35 142.476C138.016 143.198 137.163 143.52 136.435 143.186C135.707 142.852 135.385 141.993 135.725 141.265C136.053 140.544 136.912 140.221 137.64 140.555C138.368 140.89 138.69 141.749 138.35 142.476Z" fill="#1D1D1B"/>
<path fill-rule="evenodd" clip-rule="evenodd" d="M194.591 43.2874C194.591 55.5945 184.616 65.5689 172.309 65.5689C160.002 65.5689 150.022 55.5945 150.022 43.2874C150.022 30.9804 160.002 21 172.309 21C184.616 21 194.591 30.9804 194.591 43.2874Z" fill="white"/>
<path d="M172.488 27.8669C180.822 27.8669 187.575 34.626 187.575 42.9539" stroke="#E5E7FF" stroke-width="1.89" stroke-linecap="round" stroke-linejoin="round"/>
<path fill-rule="evenodd" clip-rule="evenodd" d="M154.242 74.0943C154.242 79.3739 149.958 83.6512 144.679 83.6512C139.405 83.6512 135.128 79.3739 135.128 74.0943C135.128 68.8148 139.405 64.5315 144.679 64.5315C149.958 64.5315 154.242 68.8148 154.242 74.0943Z" fill="white"/>
<path d="M145.672 69.8821C146.936 70.419 147.992 71.3496 148.672 72.5308" stroke="#E5E7FF" stroke-width="1.89" stroke-linecap="round" stroke-linejoin="round"/>
</svg>
